<svg xmlns="http://www.w3.org/2000/svg" viewBox="0 0 960 1200" role="img" aria-labelledby="title desc">
  <title id="title">Abstract editor portrait</title>
  <desc id="desc">Geometric portrait using warm editorial tones.</desc>
  <rect width="960" height="1200" fill="#efe4d1"/>
  <rect x="84" y="76" width="792" height="1048" fill="#f7f1e7" stroke="#2b241c" stroke-width="12"/>
  <circle cx="474" cy="350" r="148" fill="#2b241c"/>
  <path d="M262 1006c18-218 104-356 212-356h34c110 0 196 138 214 356z" fill="#2b241c"/>
  <path d="M398 340c18-58 58-96 102-96 52 0 92 44 106 110-36 26-70 38-112 38-38 0-70-14-96-52z" fill="#d3aa7f"/>
  <path d="M356 476c38 44 84 64 140 64 62 0 116-28 160-82 22 60 22 136 0 210-52 48-112 72-180 72-62 0-118-22-168-68-20-74-16-140 12-196 12 0 24 0 36 0z" fill="#d3aa7f"/>
  <rect x="244" y="160" width="474" height="70" fill="#9a3d28"/>
  <rect x="204" y="882" width="552" height="86" fill="#9a3d28"/>
  <path d="M322 812c52 38 104 56 158 56 72 0 126-22 178-68" fill="none" stroke="#f7f1e7" stroke-width="12" stroke-linecap="round"/>
</svg>
